<svg width="25" height="25" viewBox="0 0 25 25" fill="none" xmlns="http://www.w3.org/2000/svg">
<g clip-path="url(#clip0_15_15)">
<mask id="mask0_15_15" style="mask-type:luminance" maskUnits="userSpaceOnUse" x="0" y="0" width="25" height="25">
<path d="M25 0H0V25H25V0Z" fill="white"/>
</mask>
<g mask="url(#mask0_15_15)">
<path d="M25 15.0066C25 18.1446 25 21.2762 25 24.4142C24.8047 24.8374 24.4727 24.9545 24.0169 24.9545C16.3477 24.948 8.68493 24.948 1.01566 24.948C0.944043 24.948 0.872428 24.948 0.794303 24.948C0.351595 24.935 0.0456054 24.6355 0.0456054 24.1928C0.0456054 22.5392 0.0260742 20.879 0.0521159 19.2254C0.0716471 18.0144 0.533886 16.9728 1.38024 16.1004C1.82946 15.6381 2.36982 15.2931 2.96878 15.0392C1.36722 13.1902 1.95967 10.8725 3.25524 9.76574C4.62894 8.58736 6.65368 8.58085 8.03388 9.75272C9.31644 10.84 9.96097 13.1577 8.32685 15.0457C8.90628 15.2801 9.41409 15.6186 9.86982 16.0418C9.95446 16.1199 10.0911 16.172 10.2083 16.172C11.3216 16.1785 12.4349 16.1785 13.5482 16.1785C13.6263 16.1785 13.7044 16.1785 13.7956 16.1785C13.6523 13.8282 14.5768 12.1225 16.7057 11.1264C15.1823 9.38163 15.6185 7.12902 16.9076 5.94413C18.2422 4.71366 20.2734 4.65507 21.6862 5.77486C22.9557 6.77746 23.7891 9.15376 22.0768 11.1394C22.1289 11.1655 22.181 11.1915 22.2331 11.2111C23.3464 11.7189 24.1602 12.5262 24.6224 13.6525C24.8047 14.0887 24.8763 14.5574 25 15.0066ZM9.77217 23.4767C9.78519 23.4441 9.7917 23.4311 9.7917 23.4116C9.7917 21.9923 9.82425 20.5665 9.78519 19.1473C9.74613 17.6889 8.57425 16.3999 7.12243 16.2306C6.33467 16.1394 5.53388 16.1785 4.73961 16.1785C2.91019 16.1785 1.51696 17.5717 1.51696 19.4012C1.51696 20.6772 1.51696 21.9532 1.51696 23.2293C1.51696 23.3074 1.51696 23.3855 1.51696 23.4767C4.27737 23.4767 7.01826 23.4767 9.77217 23.4767ZM11.2695 23.4702C15.3711 23.4702 19.4466 23.4702 23.5286 23.4702C23.5286 22.5001 23.5286 21.5431 23.5286 20.5795C19.4401 20.5795 15.3581 20.5795 11.2695 20.5795C11.2695 21.5496 11.2695 22.5001 11.2695 23.4702ZM23.5156 16.172C23.763 13.9129 22.0703 11.9793 20.1237 12.3113C20.1237 12.396 20.1237 12.4806 20.1237 12.5717C20.1237 13.0535 20.1302 13.5288 20.1172 14.0105C20.1107 14.3946 19.8112 14.6876 19.4466 14.7202C19.0885 14.7462 18.7565 14.5053 18.6784 14.1407C18.6589 14.0366 18.6589 13.9324 18.6589 13.8282C18.6589 13.3204 18.6589 12.8126 18.6589 12.3048C16.9727 12.129 14.9154 13.5418 15.2734 16.172C18.0208 16.172 20.7617 16.172 23.5156 16.172ZM11.2891 19.0887C15.3646 19.0887 19.4466 19.0887 23.5286 19.0887C23.5286 18.6004 23.5286 18.1381 23.5286 17.6629C19.3359 17.6629 15.1497 17.6629 10.9831 17.6629C11.0872 18.1446 11.1849 18.6069 11.2891 19.0887ZM17.2005 8.63293C17.207 9.83085 18.1901 10.8139 19.388 10.8139C20.599 10.8139 21.5885 9.82434 21.582 8.6134C21.5755 7.41548 20.5924 6.43241 19.3945 6.43241C18.1836 6.43241 17.2005 7.42199 17.2005 8.63293ZM3.46357 12.5131C3.45706 13.7176 4.43362 14.7071 5.63154 14.7202C6.84248 14.7332 7.84508 13.7501 7.84508 12.5392C7.85159 11.3348 6.87503 10.3452 5.67711 10.3321C4.46618 10.3191 3.46357 11.3022 3.46357 12.5131Z" fill="black"/>
<path d="M12.6693 0C13.0924 0.195312 13.2161 0.527344 13.2096 0.983073C13.1966 3.45703 13.2031 5.9375 13.2031 8.41146C13.2031 8.66536 13.1576 8.89323 12.9557 9.06901C12.6432 9.34245 12.2331 9.32292 11.9076 8.9974C11.1133 8.20963 10.3125 7.42187 9.53125 6.61458C9.32943 6.40625 9.1276 6.32161 8.83463 6.32161C6.19792 6.33464 3.55469 6.32812 0.917969 6.32812C0.325521 6.33463 0.0520833 6.0612 0.0520833 5.46224C0.0455729 3.97135 0.0585938 2.47396 0.0390625 0.983073C0.0390625 0.527344 0.16276 0.195312 0.585937 0C4.61589 0 8.63932 0 12.6693 0ZM1.52344 4.8763C1.63411 4.8763 1.73177 4.8763 1.82943 4.8763C4.34896 4.8763 6.86198 4.88281 9.38151 4.86979C9.71354 4.86979 9.97396 4.97396 10.2018 5.21484C10.6445 5.67708 11.1068 6.1263 11.5625 6.57552C11.6081 6.62109 11.6602 6.66667 11.7318 6.72526C11.7318 4.95443 11.7318 3.21615 11.7318 1.47135C8.32031 1.47135 4.92839 1.47135 1.52995 1.47135C1.52344 2.60417 1.52344 3.72396 1.52344 4.8763Z" fill="black"/>
</g>
</g>
<defs>
<clipPath id="clip0_15_15">
<rect width="25" height="25" fill="white"/>
</clipPath>
</defs>
</svg>
