<svg width="34" height="33" viewBox="0 0 34 33" fill="none" xmlns="http://www.w3.org/2000/svg">
<path d="M31.6613 33H3.89196L3.04864 29.3843L12.3234 25.7687C12.3234 25.7687 7.74506 12.7572 3.04864 13.7215L1.90756 10.5051L1.90482 10.4938L1 7.93524L1.00852 7.92976C1.41039 7.65992 15.7356 -1.91311 18.5856 0.344243C20.4375 1.81189 18.1386 13.6651 16.2471 21.9928C16.2444 21.9956 16.2444 21.9956 16.2471 21.9983L16.2444 22.001C15.1818 26.668 14.2517 30.2273 14.2517 30.2273C14.2517 30.2273 19.1966 31.7008 22.0024 30.8578C24.8082 30.0148 23.9521 21.0085 23.9521 21.0085C23.9521 21.0085 30.0959 18.2983 32.9878 20.227C35.877 22.1561 31.6613 33 31.6613 33Z" fill="url(#paint0_linear_3_3271)"/>
<path d="M13.6474 32.9999H13.3777C13.4678 29.2326 12.3237 25.7689 12.3237 25.7689C12.3237 25.7689 7.74536 12.7574 3.04893 13.7217L1.90512 10.494C4.63694 9.40888 8.68702 8.09869 11.4806 8.53998C16.0559 9.26239 13.6474 32.9999 13.6474 32.9999Z" fill="url(#paint1_linear_3_3271)"/>
<path d="M13.3774 33.0001H3.89196L3.04865 29.3845L6.42133 28.0715L12.3234 25.7688C12.3234 25.7688 13.4675 29.2325 13.3774 33.0001Z" fill="url(#paint2_linear_3_3271)"/>
<path d="M31.6641 32.9941L31.6613 32.9999H13.6474L14.2518 30.2278C14.2518 30.2278 20.5876 30.798 21.8711 29.8072C23.1547 28.8164 23.4679 27.6955 23.8401 25.7366C24.1846 23.9236 23.9521 21.009 23.9521 21.009C23.9521 21.009 30.0959 18.2988 32.9878 20.2275C35.8433 22.1334 31.7597 32.7495 31.6641 32.9941Z" fill="url(#paint3_linear_3_3271)"/>
<path d="M31.664 32.9941L31.6613 32.9999C31.6613 32.9999 33.2294 25.0278 30.9283 22.9791C28.5783 20.8868 23.9523 21.009 23.9523 21.009C23.9523 21.009 30.0961 18.2988 32.9881 20.2275C35.8432 22.1334 31.7596 32.7495 31.664 32.9941Z" fill="url(#paint4_linear_3_3271)"/>
<path opacity="0.5" d="M3.66575 29.5803L3.89196 33.0001L3.04893 29.3845L12.3237 25.7688L3.66575 29.5803Z" fill="#F9A914"/>
<path opacity="0.5" d="M16.247 21.9928C16.3368 21.5205 18.821 4.34072 16.6204 3.15144C14.4254 1.96216 1.4243 7.69616 1.00842 7.92976C1.4103 7.65992 15.7355 -1.91311 18.5855 0.344243C20.4374 1.81219 18.1385 13.6654 16.247 21.9928Z" fill="#7B1414"/>
<path d="M14.2797 23.4802L14.2405 23.3873C14.4231 16.7158 14.0691 8.9475 11.4806 8.53971C8.68702 8.09841 4.63999 9.4086 1.90817 10.491C2.08536 10.3926 9.52304 6.94263 12.0232 8.11821C15.2144 9.61874 14.2797 23.4802 14.2797 23.4802Z" fill="#F9A914"/>
<defs>
<linearGradient id="paint0_linear_3_3271" x1="4.93794" y1="33.0901" x2="16.7588" y2="3.15422" gradientUnits="userSpaceOnUse">
<stop stop-color="#EA9916"/>
<stop offset="1" stop-color="#FF571F"/>
</linearGradient>
<linearGradient id="paint1_linear_3_3271" x1="18.1384" y1="7.79288" x2="8.73903" y2="20.4415" gradientUnits="userSpaceOnUse">
<stop stop-color="#9B324D"/>
<stop offset="1" stop-color="#FB9429" stop-opacity="0"/>
</linearGradient>
<linearGradient id="paint2_linear_3_3271" x1="13.864" y1="29.0196" x2="1.39298" y2="33.0877" gradientUnits="userSpaceOnUse">
<stop stop-color="#F85616"/>
<stop offset="1" stop-color="#FB9429" stop-opacity="0"/>
</linearGradient>
<linearGradient id="paint3_linear_3_3271" x1="26.5516" y1="37.6086" x2="24.046" y2="10.543" gradientUnits="userSpaceOnUse">
<stop stop-color="#47029C"/>
<stop offset="0.04" stop-color="#4D06A1"/>
<stop offset="0.35" stop-color="#7C28C9"/>
<stop offset="0.62" stop-color="#9D40E6"/>
<stop offset="0.85" stop-color="#B24FF8"/>
<stop offset="1" stop-color="#BA55FF"/>
</linearGradient>
<linearGradient id="paint4_linear_3_3271" x1="26.0715" y1="37.8171" x2="31.0556" y2="20.1056" gradientUnits="userSpaceOnUse">
<stop stop-color="#BA55FF"/>
<stop offset="0.15" stop-color="#B24FF8"/>
<stop offset="0.38" stop-color="#9D40E6"/>
<stop offset="0.65" stop-color="#7C28C9"/>
<stop offset="0.96" stop-color="#502A7E"/>
<stop offset="1" stop-color="#502A7E"/>
</linearGradient>
</defs>
</svg>
