<svg width="125" height="33" viewBox="0 0 125 33" fill="none" xmlns="http://www.w3.org/2000/svg">
<g clip-path="url(#clip0_3_3228)">
<path d="M82.9312 2.35913C85.1559 2.35916 87.0718 2.8017 88.6773 3.68726C90.2827 4.56563 91.5175 5.82966 92.3814 7.47827C93.2524 9.12687 93.688 11.0998 93.6881 13.3962C93.688 15.7 93.2526 17.6808 92.3814 19.3367C91.5175 20.9924 90.2756 22.2636 88.6559 23.1492C87.0431 24.0347 85.113 24.4773 82.8668 24.4773H81.4537C82.0401 21.458 82.4862 18.3429 82.7672 15.1511L84.8326 17.3318L84.3766 13.9626L87.442 12.4841L84.0934 11.8748L83.6598 8.50562L82.0289 11.5056L78.6812 10.8748L81.0504 13.3533L79.4205 16.3318L82.485 14.8533L82.6109 14.9861C81.0765 19.4507 79.1865 22.7007 76.6988 24.4773H75.026V21.6472C75.0322 21.5345 75.0322 21.4204 75.026 21.3054V2.35913H82.9312Z" fill="white"/>
<path d="M30.5283 32.9861H2.87941L2.03975 29.3874L11.2742 25.7887C11.2742 25.7887 6.7158 12.8381 2.03975 13.7978L0.90362 10.5965L0.900891 10.5853L0 8.03872L0.00848292 8.03326C0.408612 7.76469 14.6717 -1.76353 17.5093 0.483257C19.3532 1.94403 17.0643 13.7418 15.1809 22.0305C15.1782 22.0332 15.1782 22.0332 15.1809 22.0359L15.1782 22.0387C14.1203 26.6838 13.1942 30.2265 13.1942 30.2265C13.1942 30.2265 18.1176 31.6931 20.9112 30.854C23.7049 30.015 22.8525 21.0508 22.8525 21.0508C22.8525 21.0508 28.9696 18.3532 31.849 20.273C34.7257 22.193 30.5283 32.9861 30.5283 32.9861Z" fill="url(#paint0_linear_3_3228)"/>
<path d="M12.5925 32.9861H12.324C12.4137 29.2364 11.2745 25.7889 11.2745 25.7889C11.2745 25.7889 6.71608 12.8384 2.04003 13.7981L0.901184 10.5855C3.62115 9.50547 7.65366 8.20142 10.4352 8.64065C14.9906 9.35967 12.5925 32.9861 12.5925 32.9861Z" fill="url(#paint1_linear_3_3228)"/>
<path d="M12.3237 32.9863H2.87941L2.03975 29.3876L5.3978 28.0808L11.2742 25.7888C11.2742 25.7888 12.4134 29.2363 12.3237 32.9863Z" fill="url(#paint2_linear_3_3228)"/>
<path d="M30.531 32.9802L30.5283 32.9859H12.5925L13.1942 30.2268C13.1942 30.2268 19.5026 30.7944 20.7805 29.8082C22.0585 28.8221 22.3704 27.7064 22.741 25.7567C23.084 23.9521 22.8525 21.0512 22.8525 21.0512C22.8525 21.0512 28.9696 18.3536 31.849 20.2733C34.6921 22.1703 30.6262 32.7367 30.531 32.9802Z" fill="url(#paint3_linear_3_3228)"/>
<path d="M30.531 32.9802L30.5283 32.9859C30.5283 32.9859 32.0895 25.0512 29.7985 23.0121C27.4586 20.9296 22.8528 21.0512 22.8528 21.0512C22.8528 21.0512 28.9699 18.3536 31.8493 20.2733C34.692 22.1703 30.6262 32.7367 30.531 32.9802Z" fill="url(#paint4_linear_3_3228)"/>
<path opacity="0.5" d="M2.65418 29.5825L2.8794 32.9863L2.04004 29.3876L11.2745 25.7888L2.65418 29.5825Z" fill="#F9A914"/>
<path opacity="0.5" d="M15.1809 22.0305C15.2703 21.5603 17.7437 4.46103 15.5527 3.27731C13.3671 2.0936 0.422496 7.80076 0.00842285 8.03326C0.408552 7.76469 14.6716 -1.76353 17.5092 0.483257C19.3531 1.94433 17.0642 13.7421 15.1809 22.0305Z" fill="#7B1414"/>
<path d="M13.2221 23.5109L13.183 23.4184C13.3649 16.7781 13.0124 9.04624 10.4352 8.64035C7.65366 8.20112 3.62419 9.50518 0.904221 10.5825C1.08064 10.4846 8.48605 7.05075 10.9753 8.22082C14.1527 9.71434 13.2221 23.5109 13.2221 23.5109Z" fill="#F9A914"/>
<path d="M124.541 7.88867V11.3446H114.551V7.88867H124.541ZM116.819 3.91431H121.42V19.3798C121.42 19.8046 121.484 20.1358 121.614 20.3734C121.744 20.6038 121.924 20.7657 122.154 20.8593C122.392 20.9529 122.665 20.9997 122.975 20.9997C123.191 20.9997 123.407 20.9817 123.623 20.9457C123.839 20.9025 124.004 20.8701 124.12 20.8485L124.843 24.2721C124.613 24.3441 124.289 24.4269 123.871 24.5205C123.454 24.6213 122.946 24.6825 122.348 24.7041C121.24 24.7473 120.268 24.5997 119.432 24.2613C118.604 23.9229 117.96 23.3973 117.499 22.6845C117.038 21.9717 116.812 21.0717 116.819 19.9846V3.91431Z" fill="white"/>
<path d="M104.561 24.8012C102.883 24.8012 101.433 24.4448 100.209 23.7321C98.9917 23.0121 98.0521 22.0113 97.3897 20.7297C96.7273 19.4409 96.3961 17.9469 96.3961 16.2477C96.3961 14.5341 96.7273 13.0366 97.3897 11.755C98.0521 10.4662 98.9917 9.46539 100.209 8.7526C101.433 8.0326 102.883 7.67261 104.561 7.67261C106.238 7.67261 107.686 8.0326 108.902 8.7526C110.126 9.46539 111.07 10.4662 111.732 11.755C112.394 13.0366 112.726 14.5341 112.726 16.2477C112.726 17.9469 112.394 19.4409 111.732 20.7297C111.07 22.0113 110.126 23.0121 108.902 23.7321C107.686 24.4448 106.238 24.8012 104.561 24.8012ZM104.582 21.2373C105.346 21.2373 105.983 21.0213 106.494 20.5893C107.005 20.1501 107.39 19.5525 107.65 18.7965C107.916 18.0405 108.049 17.1801 108.049 16.2153C108.049 15.2505 107.916 14.3901 107.65 13.6342C107.39 12.8782 107.005 12.2806 106.494 11.8414C105.983 11.4022 105.346 11.1826 104.582 11.1826C103.812 11.1826 103.164 11.4022 102.638 11.8414C102.12 12.2806 101.728 12.8782 101.461 13.6342C101.202 14.3901 101.073 15.2505 101.073 16.2153C101.073 17.1801 101.202 18.0405 101.461 18.7965C101.728 19.5525 102.12 20.1501 102.638 20.5893C103.164 21.0213 103.812 21.2373 104.582 21.2373Z" fill="white"/>
<path d="M66.6532 24.4772V7.8886H71.254V24.4772H66.6532ZM68.9644 5.75022C68.2804 5.75022 67.6936 5.52342 67.204 5.06982C66.7216 4.60903 66.4804 4.05823 66.4804 3.41744C66.4804 2.78384 66.7216 2.24025 67.204 1.78665C67.6936 1.32586 68.2804 1.09546 68.9644 1.09546C69.6484 1.09546 70.2316 1.32586 70.714 1.78665C71.2036 2.24025 71.4484 2.78384 71.4484 3.41744C71.4484 4.05823 71.2036 4.60903 70.714 5.06982C70.2316 5.52342 69.6484 5.75022 68.9644 5.75022Z" fill="white"/>
<path d="M63.6562 7.88867V11.3446H53.6663V7.88867H63.6562ZM55.9343 3.91431H60.5351V19.3798C60.5351 19.8046 60.5999 20.1358 60.7295 20.3734C60.8591 20.6038 61.0391 20.7657 61.2695 20.8593C61.5071 20.9529 61.7807 20.9997 62.0903 20.9997C62.3063 20.9997 62.5223 20.9817 62.7383 20.9457C62.9543 20.9025 63.1199 20.8701 63.235 20.8485L63.9586 24.2721C63.7282 24.3441 63.4042 24.4269 62.9867 24.5205C62.5691 24.6213 62.0615 24.6825 61.4639 24.7041C60.3551 24.7473 59.3831 24.5997 58.5479 24.2613C57.7199 23.9229 57.0755 23.3973 56.6147 22.6845C56.1539 21.9717 55.9271 21.0717 55.9343 19.9846V3.91431Z" fill="white"/>
<path d="M41.9215 24.7904C40.8631 24.7904 39.9199 24.6068 39.0919 24.2396C38.2639 23.8653 37.6087 23.3145 37.1263 22.5873C36.6511 21.8529 36.4135 20.9385 36.4135 19.8441C36.4135 18.9225 36.5827 18.1485 36.9211 17.5221C37.2595 16.8957 37.7203 16.3917 38.3035 16.0101C38.8867 15.6285 39.5491 15.3405 40.2907 15.1461C41.0395 14.9517 41.8243 14.8149 42.6451 14.7357C43.6098 14.6349 44.3874 14.5413 44.9778 14.4549C45.5682 14.3613 45.9966 14.2245 46.263 14.0445C46.5294 13.8645 46.6626 13.5982 46.6626 13.2454V13.1806C46.6626 12.4966 46.4466 11.9674 46.0146 11.593C45.5898 11.2186 44.985 11.0314 44.2002 11.0314C43.3722 11.0314 42.7135 11.215 42.2239 11.5822C41.7343 11.9422 41.4103 12.3958 41.2519 12.943L36.9967 12.5974C37.2127 11.5894 37.6375 10.7182 38.2711 9.98379C38.9047 9.24219 39.7219 8.6734 40.7227 8.2774C41.7307 7.87421 42.8971 7.67261 44.2218 7.67261C45.1434 7.67261 46.0254 7.78061 46.8678 7.9966C47.7174 8.2126 48.4698 8.5474 49.125 9.00099C49.7874 9.45459 50.3094 10.0378 50.691 10.7506C51.0726 11.4562 51.2634 12.3022 51.2634 13.2886V24.4772H46.9002V22.1769H46.7706C46.5042 22.6953 46.1478 23.1525 45.7014 23.5485C45.255 23.9373 44.7186 24.2432 44.0922 24.4664C43.4659 24.6824 42.7423 24.7904 41.9215 24.7904ZM43.2391 21.6153C43.9158 21.6153 44.5134 21.4821 45.0318 21.2157C45.5502 20.9421 45.957 20.5749 46.2522 20.1141C46.5474 19.6533 46.695 19.1313 46.695 18.5481V16.7877C46.551 16.8813 46.353 16.9677 46.101 17.0469C45.8562 17.1189 45.579 17.1873 45.2694 17.2521C44.9598 17.3097 44.6502 17.3637 44.3406 17.4141C44.031 17.4573 43.7502 17.4969 43.4982 17.5329C42.9583 17.6121 42.4867 17.7381 42.0835 17.9109C41.6803 18.0837 41.3671 18.3177 41.1439 18.6129C40.9207 18.9009 40.8091 19.2609 40.8091 19.6929C40.8091 20.3193 41.0359 20.7981 41.4895 21.1293C41.9503 21.4533 42.5335 21.6153 43.2391 21.6153Z" fill="white"/>
<path d="M121.603 28.9856H122.152L123.251 30.8342H123.297L124.396 28.9856H124.945L123.514 31.3138V32.9458H123.034V31.3138L121.603 28.9856Z" fill="white"/>
<path d="M116.119 28.9856H116.691L118.037 32.2729H118.084L119.429 28.9856H120.002V32.9458H119.553V29.937H119.515L118.277 32.9458H117.844L116.606 29.937H116.568V32.9458H116.119V28.9856Z" fill="white"/>
<path d="M111.884 32.9458V28.9856H114.275V29.411H112.364V30.7491H114.151V31.1745H112.364V32.5204H114.305V32.9458H111.884Z" fill="white"/>
<path d="M108.213 32.9458H106.991V28.9856H108.267C108.651 28.9856 108.98 29.0649 109.253 29.2234C109.526 29.3807 109.736 29.607 109.881 29.9022C110.027 30.1961 110.1 30.548 110.1 30.958C110.1 31.3705 110.026 31.7256 109.88 32.0234C109.733 32.3199 109.519 32.5481 109.238 32.708C108.956 32.8665 108.615 32.9458 108.213 32.9458ZM107.47 32.5204H108.182C108.509 32.5204 108.781 32.4572 108.996 32.3309C109.211 32.2045 109.372 32.0247 109.477 31.7914C109.583 31.5581 109.636 31.2802 109.636 30.958C109.636 30.6383 109.584 30.363 109.479 30.1323C109.375 29.9002 109.219 29.7223 109.011 29.5986C108.804 29.4735 108.545 29.411 108.236 29.411H107.47V32.5204Z" fill="white"/>
<path d="M102.493 32.9458H101.99L103.444 28.9856H103.939L105.394 32.9458H104.891L103.707 29.6121H103.676L102.493 32.9458ZM102.679 31.3988H104.705V31.8243H102.679V31.3988Z" fill="white"/>
<path d="M100.575 30.2233H100.096C100.068 30.0854 100.018 29.9642 99.947 29.8598C99.8774 29.7554 99.7923 29.6677 99.6918 29.5968C99.5925 29.5246 99.4823 29.4705 99.3611 29.4344C99.2399 29.3983 99.1136 29.3803 98.9821 29.3803C98.7423 29.3803 98.5251 29.4408 98.3304 29.562C98.1371 29.6832 97.983 29.8617 97.8683 30.0977C97.7548 30.3336 97.6981 30.623 97.6981 30.9659C97.6981 31.3088 97.7548 31.5982 97.8683 31.8341C97.983 32.07 98.1371 32.2486 98.3304 32.3697C98.5251 32.4909 98.7423 32.5515 98.9821 32.5515C99.1136 32.5515 99.2399 32.5335 99.3611 32.4974C99.4823 32.4613 99.5925 32.4078 99.6918 32.3369C99.7923 32.2647 99.8774 32.1764 99.947 32.072C100.018 31.9662 100.068 31.8451 100.096 31.7084H100.575C100.539 31.9108 100.474 32.0919 100.378 32.2518C100.283 32.4116 100.164 32.5476 100.022 32.6598C99.8806 32.7707 99.7214 32.8551 99.5448 32.9131C99.3695 32.9711 99.1819 33.0001 98.9821 33.0001C98.6443 33.0001 98.344 32.9176 98.081 32.7526C97.818 32.5876 97.6111 32.353 97.4603 32.0488C97.3095 31.7445 97.234 31.3836 97.234 30.9659C97.234 30.5482 97.3095 30.1873 97.4603 29.883C97.6111 29.5788 97.818 29.3442 98.081 29.1792C98.344 29.0141 98.6443 28.9316 98.9821 28.9316C99.1819 28.9316 99.3695 28.9606 99.5448 29.0187C99.7214 29.0767 99.8806 29.1618 100.022 29.2739C100.164 29.3848 100.283 29.5201 100.378 29.68C100.474 29.8385 100.539 30.0197 100.575 30.2233Z" fill="white"/>
<path d="M93.0773 32.9458H92.5746L94.0287 28.9856H94.5237L95.9779 32.9458H95.4751L94.2917 29.6121H94.2608L93.0773 32.9458ZM93.263 31.3988H95.2895V31.8243H93.263V31.3988Z" fill="white"/>
<path d="M86.1687 32.9458V28.9856H88.5588V29.411H86.6483V30.7491H88.435V31.1745H86.6483V32.5204H88.5897V32.9458H86.1687Z" fill="white"/>
<path d="M81.6712 28.9856L82.8469 32.3193H82.8933L84.069 28.9856H84.5717L83.1176 32.9458H82.6226L81.1684 28.9856H81.6712Z" fill="white"/>
<path d="M79.5671 28.9856V32.9458H79.0875V28.9856H79.5671Z" fill="white"/>
<path d="M74.3971 29.411V28.9856H77.3673V29.411H76.122V32.9458H75.6424V29.411H74.3971Z" fill="white"/>
<path d="M70.5788 32.9458H70.076L71.5302 28.9856H72.0252L73.4793 32.9458H72.9766L71.7932 29.6121H71.7622L70.5788 32.9458ZM70.7644 31.3988H72.7909V31.8243H70.7644V31.3988Z" fill="white"/>
<path d="M66.1818 32.9458V28.9856H68.5719V29.411H66.6614V30.7491H68.4481V31.1745H66.6614V32.5204H68.6028V32.9458H66.1818Z" fill="white"/>
<path d="M61.7186 32.9458V28.9856H63.0567C63.3661 28.9856 63.62 29.0385 63.8186 29.1442C64.0171 29.2486 64.1641 29.3923 64.2595 29.5754C64.3548 29.7584 64.4025 29.9666 64.4025 30.2C64.4025 30.4333 64.3548 30.6402 64.2595 30.8207C64.1641 31.0011 64.0177 31.143 63.8205 31.2461C63.6233 31.3479 63.3712 31.3988 63.0644 31.3988H61.9816V30.9657H63.049C63.2604 30.9657 63.4305 30.9348 63.5595 30.8729C63.6897 30.811 63.7838 30.7233 63.8418 30.6099C63.9011 30.4952 63.9307 30.3585 63.9307 30.2C63.9307 30.0414 63.9011 29.9028 63.8418 29.7842C63.7825 29.6656 63.6877 29.5741 63.5575 29.5096C63.4273 29.4439 63.2552 29.411 63.0412 29.411H62.1981V32.9458H61.7186ZM63.5827 31.1668L64.5572 32.9458H64.0003L63.0412 31.1668H63.5827Z" fill="white"/>
<path d="M59.9635 30.2233H59.484C59.4556 30.0854 59.406 29.9642 59.3351 29.8598C59.2654 29.7554 59.1804 29.6677 59.0798 29.5968C58.9805 29.5246 58.8703 29.4705 58.7491 29.4344C58.628 29.3983 58.5016 29.3803 58.3701 29.3803C58.1304 29.3803 57.9131 29.4408 57.7185 29.562C57.5251 29.6832 57.3711 29.8617 57.2563 30.0977C57.1429 30.3336 57.0862 30.623 57.0862 30.9659C57.0862 31.3088 57.1429 31.5982 57.2563 31.8341C57.3711 32.07 57.5251 32.2486 57.7185 32.3697C57.9131 32.4909 58.1304 32.5515 58.3701 32.5515C58.5016 32.5515 58.628 32.5335 58.7491 32.4974C58.8703 32.4613 58.9805 32.4078 59.0798 32.3369C59.1804 32.2647 59.2654 32.1764 59.3351 32.072C59.406 31.9662 59.4556 31.8451 59.484 31.7084H59.9635C59.9274 31.9108 59.8617 32.0919 59.7663 32.2518C59.6709 32.4116 59.5523 32.5476 59.4105 32.6598C59.2687 32.7707 59.1095 32.8551 58.9328 32.9131C58.7575 32.9711 58.57 33.0001 58.3701 33.0001C58.0324 33.0001 57.732 32.9176 57.469 32.7526C57.2061 32.5876 56.9992 32.353 56.8483 32.0488C56.6975 31.7445 56.6221 31.3836 56.6221 30.9659C56.6221 30.5482 56.6975 30.1873 56.8483 29.883C56.9992 29.5788 57.2061 29.3442 57.469 29.1792C57.732 29.0141 58.0324 28.9316 58.3701 28.9316C58.57 28.9316 58.7575 28.9606 58.9328 29.0187C59.1095 29.0767 59.2687 29.1618 59.4105 29.2739C59.5523 29.3848 59.6709 29.5201 59.7663 29.68C59.8617 29.8385 59.9274 30.0197 59.9635 30.2233Z" fill="white"/>
<circle cx="54.1891" cy="30.9589" r="1.2165" fill="#EF4353"/>
</g>
<defs>
<linearGradient id="paint0_linear_3_3228" x1="3.92086" y1="33.0758" x2="15.6834" y2="3.27731" gradientUnits="userSpaceOnUse">
<stop stop-color="#EA9916"/>
<stop offset="1" stop-color="#FF571F"/>
</linearGradient>
<linearGradient id="paint1_linear_3_3228" x1="17.064" y1="7.89705" x2="7.70959" y2="20.4895" gradientUnits="userSpaceOnUse">
<stop stop-color="#9B324D"/>
<stop offset="1" stop-color="#FB9429" stop-opacity="0"/>
</linearGradient>
<linearGradient id="paint2_linear_3_3228" x1="12.8081" y1="29.0244" x2="0.392091" y2="33.076" gradientUnits="userSpaceOnUse">
<stop stop-color="#F85616"/>
<stop offset="1" stop-color="#FB9429" stop-opacity="0"/>
</linearGradient>
<linearGradient id="paint3_linear_3_3228" x1="25.4407" y1="37.5731" x2="22.9477" y2="10.634" gradientUnits="userSpaceOnUse">
<stop stop-color="#47029C"/>
<stop offset="0.04" stop-color="#4D06A1"/>
<stop offset="0.35" stop-color="#7C28C9"/>
<stop offset="0.62" stop-color="#9D40E6"/>
<stop offset="0.85" stop-color="#B24FF8"/>
<stop offset="1" stop-color="#BA55FF"/>
</linearGradient>
<linearGradient id="paint4_linear_3_3228" x1="24.9628" y1="37.7806" x2="29.922" y2="20.1511" gradientUnits="userSpaceOnUse">
<stop stop-color="#BA55FF"/>
<stop offset="0.15" stop-color="#B24FF8"/>
<stop offset="0.38" stop-color="#9D40E6"/>
<stop offset="0.65" stop-color="#7C28C9"/>
<stop offset="0.96" stop-color="#502A7E"/>
<stop offset="1" stop-color="#502A7E"/>
</linearGradient>
<clipPath id="clip0_3_3228">
<rect width="125" height="33" fill="white"/>
</clipPath>
</defs>
</svg>
