<svg width="30" height="30" viewBox="0 0 30 30" fill="none" xmlns="http://www.w3.org/2000/svg">
<g clip-path="url(#clip0_16_40)">
<mask id="mask0_16_40" style="mask-type:luminance" maskUnits="userSpaceOnUse" x="0" y="0" width="30" height="30">
<path d="M30 0H0V30H30V0Z" fill="white"/>
</mask>
<g mask="url(#mask0_16_40)">
<path d="M4.21878 30.0001C3.71097 29.7657 3.55472 29.3672 3.56253 28.8204C3.58597 27.5469 3.57034 26.2657 3.57034 24.9922C3.57816 20.9766 6.39847 17.6954 10.3672 17.1016C10.9141 17.0157 11.4766 17.0235 12.0703 16.9844C12.0703 16.7579 12.0781 16.5235 12.0625 16.2813C12.0547 16.211 11.9844 16.1329 11.9219 16.086C10.2266 14.8985 9.41409 13.2657 9.42972 11.2032C9.43753 10.1329 9.42972 9.06257 9.42972 7.98445C9.42972 7.87507 9.42972 7.77351 9.42972 7.66414C9.36722 7.6407 9.32816 7.61726 9.28128 7.60945C8.36722 7.41414 7.77347 6.85945 7.50003 5.97664C7.22659 5.08601 7.45316 4.29695 8.10941 3.6407C8.93753 2.82039 9.71097 1.92976 10.7109 1.29695C13.7891 -0.656174 17.7656 -0.288986 20.4297 2.19539C20.9297 2.66414 21.4063 3.14851 21.8828 3.63289C22.5313 4.28914 22.7656 5.0782 22.4922 5.96882C22.2266 6.85164 21.625 7.40632 20.7109 7.60164C20.6641 7.60945 20.6172 7.63289 20.5625 7.65632C20.5625 8.62507 20.5625 9.58601 20.5625 10.5547C20.5625 11.3516 20.5859 12.1563 20.3594 12.9297C19.9922 14.1876 19.2813 15.2188 18.2109 15.9766C18 16.1251 17.8828 16.2813 17.9219 16.5391C17.9375 16.6797 17.9219 16.8282 17.9219 16.9844C18.3906 17.0079 18.8516 17.0079 19.3047 17.0547C23.3203 17.461 26.3828 20.8047 26.4219 24.836C26.4375 26.1641 26.4063 27.4844 26.4297 28.8126C26.4375 29.3594 26.2813 29.7579 25.7734 29.9922C18.6016 30.0001 11.4063 30.0001 4.21878 30.0001ZM24.6094 24.0313C24.4063 22.7188 23.8672 21.6094 22.9766 20.6876C21.6094 19.2579 19.8984 18.6797 17.9453 18.7813C17.8672 18.7891 17.7578 18.8985 17.7188 18.9844C17.3906 19.7344 16.8672 20.2891 16.1094 20.5938C15.9219 20.6719 15.875 20.7657 15.875 20.961C15.8828 22.0626 15.875 23.1641 15.8828 24.2657C15.8828 24.6251 15.75 24.9141 15.4297 25.0938C14.8359 25.4297 14.1328 25.0157 14.125 24.3204C14.1172 23.2032 14.1172 22.0782 14.125 20.961C14.125 20.7579 14.0625 20.6719 13.8828 20.6016C13.2656 20.3594 12.7266 19.9532 12.4766 19.3438C12.2578 18.8282 11.9453 18.7501 11.4609 18.7735C8.83597 18.8907 6.95316 20.1251 5.84378 22.5001C5.62503 22.9766 5.51566 23.5001 5.34378 24.0469C6.25003 24.0469 7.07034 24.0469 7.89066 24.0469C8.48441 24.0469 8.84378 24.4063 8.84378 24.9922C8.85159 25.4766 8.84378 25.9688 8.84378 26.4532C8.84378 27.0469 8.84378 27.6407 8.84378 28.2422C12.9609 28.2422 17.0469 28.2422 21.1563 28.2422C21.1563 27.1719 21.1563 26.1251 21.1563 25.0704C21.1563 24.3829 21.4922 24.0469 22.1797 24.0469C22.9844 24.0313 23.7813 24.0313 24.6094 24.0313ZM14.9766 5.89851C16.7109 5.89851 18.4531 5.89851 20.1875 5.89851C20.4688 5.89851 20.6875 5.79695 20.7969 5.53132C20.8984 5.28132 20.8281 5.05476 20.6406 4.86726C20.1719 4.39851 19.7109 3.92195 19.2266 3.46882C16.9453 1.35945 13.5234 1.23445 11.1172 3.18757C10.5234 3.67195 10.0078 4.25789 9.45316 4.78914C9.23441 5.00007 9.08597 5.22664 9.21878 5.53914C9.35159 5.84382 9.60941 5.89851 9.92191 5.89851C11.6016 5.89851 13.2891 5.90632 14.9766 5.89851ZM11.1953 9.78914C11.1953 10.3829 11.1875 10.9376 11.1953 11.4922C11.2109 13.2969 12.5547 14.8907 14.3047 15.1954C16.1797 15.5235 17.9609 14.4922 18.5938 12.7266C18.9375 11.7735 18.7734 10.7891 18.8203 9.78914C15.9844 11.7032 13.7422 11.5079 11.1953 9.78914ZM11.6016 7.66414C11.5938 7.68757 11.5781 7.71882 11.5703 7.74226C12.5703 8.74226 13.7344 9.46101 15.1953 9.38289C16.4844 9.31257 17.5703 8.68757 18.4844 7.66414C16.1406 7.66414 13.8672 7.66414 11.6016 7.66414ZM5.35159 25.8047C5.35159 26.6329 5.35159 27.4297 5.35159 28.2266C5.93753 28.2266 6.50784 28.2266 7.07034 28.2266C7.07034 27.4063 7.07034 26.6016 7.07034 25.8047C6.49222 25.8047 5.92972 25.8047 5.35159 25.8047ZM22.9375 25.8047C22.9375 26.6329 22.9375 27.4297 22.9375 28.2344C23.5234 28.2344 24.0859 28.2344 24.6563 28.2344C24.6563 27.4219 24.6563 26.6172 24.6563 25.8047C24.0781 25.8047 23.5156 25.8047 22.9375 25.8047ZM13.8359 16.961C13.8359 17.2579 13.8281 17.586 13.8359 17.9141C13.8516 18.5235 14.3203 19.0157 14.9141 19.0626C15.5078 19.1094 16.0703 18.6954 16.1484 18.0938C16.2031 17.7032 16.1563 17.3047 16.1563 16.961C15.3828 16.961 14.6328 16.961 13.8359 16.961Z" fill="white"/>
</g>
</g>
<defs>
<clipPath id="clip0_16_40">
<rect width="30" height="30" fill="white"/>
</clipPath>
</defs>
</svg>
